# xmcd
#
# Track frame offsets:
#	150
#	13661
#	27256
#	42269
#	56231
#	71038
#	83231
#	95553
#	108838
#	121917
#	133992
#	147253
#	160527
#	173152
#	187788
#	198685
#	211497
#	226349
#
# Disc length: 3200 seconds
#
# Revision: 1
# Processed by: cddbd v1.5.2PL0 Copyright (c) Steve Scherf et al.
# Submitted via: audiograbber 1.83.01
#
DISCID=fc0c7e12
DTITLE=Dinah Washington - Misbehavin' - The Best Of Dinah Washington
DYEAR=2006
DGENRE=Blues
TTITLE0=Mad About The Boy
TTITLE1=Stormy Weather
TTITLE2=Cold, Cold Heart
TTITLE3=My Devotion
TTITLE4=I Appologize
TTITLE5=Hey, Good Lookin'
TTITLE6=Ain't Misbehavin'
TTITLE7=How Deep Is The Ocean
TTITLE8=When A Man Loves A Woman
TTITLE9=My Heart Cries For You
TTITLE10=Tell Me Why
TTITLE11=Mixed Emotions
TTITLE12=Don't Hold It Against Me
TTITLE13=Don't Say You're Sorry Again
TTITLE14=If I Loved You
TTITLE15=Embraceable You
TTITLE16=Time Out For Tears
TTITLE17=Harbour Lights
EXTD=Horizon HZCD1035
EXTT0=
EXTT1=
EXTT2=
EXTT3=
EXTT4=
EXTT5=
EXTT6=
EXTT7=
EXTT8=
EXTT9=
EXTT10=
EXTT11=
EXTT12=
EXTT13=
EXTT14=
EXTT15=
EXTT16=
EXTT17=
PLAYORDER=
